<svg width="23" height="23" viewBox="0 0 23 23" fill="none" xmlns="http://www.w3.org/2000/svg">
<g clip-path="url(#clip0_8_212)">
<path d="M20.884 17.9242C20.5362 18.7278 20.1244 19.4675 19.6474 20.1475C18.9972 21.0746 18.4648 21.7163 18.0545 22.0726C17.4185 22.6575 16.737 22.9571 16.0073 22.9741C15.4834 22.9741 14.8516 22.8251 14.1162 22.5227C13.3784 22.2217 12.7004 22.0726 12.0804 22.0726C11.4301 22.0726 10.7328 22.2217 9.98687 22.5227C9.23982 22.8251 8.63801 22.9827 8.17788 22.9983C7.47811 23.0281 6.78061 22.72 6.08438 22.0726C5.64001 21.685 5.0842 21.0206 4.41835 20.0794C3.70396 19.0742 3.11662 17.9086 2.6565 16.5798C2.16372 15.1444 1.91669 13.7545 1.91669 12.4089C1.91669 10.8676 2.24975 9.53815 2.91687 8.4241C3.44117 7.52926 4.13867 6.82337 5.01165 6.30518C5.88463 5.78699 6.82788 5.52292 7.84368 5.50603C8.3995 5.50603 9.12838 5.67795 10.0342 6.01584C10.9374 6.35487 11.5173 6.5268 11.7716 6.5268C11.9617 6.5268 12.6059 6.32577 13.6981 5.92498C14.731 5.5533 15.6027 5.39941 16.3168 5.46003C18.2518 5.6162 19.7056 6.37901 20.6724 7.75328C18.9418 8.80188 18.0857 10.2706 18.1028 12.1547C18.1184 13.6222 18.6508 14.8435 19.6971 15.8131C20.1713 16.2632 20.7008 16.611 21.29 16.858C21.1622 17.2286 21.0274 17.5835 20.884 17.9242ZM16.446 0.460375C16.446 1.61064 16.0257 2.68463 15.1881 3.67872C14.1773 4.86048 12.9546 5.54336 11.6288 5.43561C11.6119 5.29761 11.6021 5.15238 11.6021 4.99976C11.6021 3.89551 12.0828 2.71374 12.9365 1.74748C13.3627 1.25825 13.9047 0.851463 14.562 0.526959C15.2179 0.207297 15.8383 0.030517 16.4218 0.000244141C16.4389 0.154016 16.446 0.307798 16.446 0.46036V0.460375Z" fill="black"/>
</g>
<defs>
<clipPath id="clip0_8_212">
<rect width="23" height="23" fill="white"/>
</clipPath>
</defs>
</svg>
