<svg width="23" height="23" viewBox="0 0 23 23" fill="none" xmlns="http://www.w3.org/2000/svg">
<g clip-path="url(#clip0_8_183)">
<path d="M11.4998 9.40906V13.8627H17.6889C17.4171 15.295 16.6016 16.5077 15.3784 17.3232L19.1107 20.2191C21.2852 18.2119 22.5398 15.2637 22.5398 11.7614C22.5398 10.946 22.4666 10.1618 22.3306 9.40918L11.4998 9.40906Z" fill="#4285F4"/>
<path d="M5.05488 13.6888L4.21312 14.3332L1.23352 16.6541C3.12579 20.4072 7.00414 23 11.4996 23C14.6045 23 17.2076 21.9754 19.1104 20.2191L15.3781 17.3232C14.3536 18.0132 13.0468 18.4314 11.4996 18.4314C8.50957 18.4314 5.96919 16.4137 5.05958 13.6955L5.05488 13.6888Z" fill="#34A853"/>
<path d="M1.23355 6.34589C0.449499 7.8931 0 9.63903 0 11.4999C0 13.3608 0.449499 15.1067 1.23355 16.6539C1.23355 16.6643 5.05998 13.6848 5.05998 13.6848C4.82998 12.9948 4.69403 12.2631 4.69403 11.4998C4.69403 10.7365 4.82998 10.0047 5.05998 9.31474L1.23355 6.34589Z" fill="#FBBC05"/>
<path d="M11.4998 4.57909C13.1935 4.57909 14.6989 5.16453 15.9012 6.29363L19.1943 3.00049C17.1975 1.13962 14.6048 0 11.4998 0C7.00437 0 3.12579 2.58227 1.23352 6.34592L5.05983 9.31501C5.96932 6.5968 8.50981 4.57909 11.4998 4.57909Z" fill="#EA4335"/>
</g>
<defs>
<clipPath id="clip0_8_183">
<rect width="23" height="23" fill="white"/>
</clipPath>
</defs>
</svg>
